<?xml version="1.0" standalone="no"?>
<!DOCTYPE svg PUBLIC "-//W3C//DTD SVG 20010904//EN"
 "http://www.w3.org/TR/2001/REC-SVG-20010904/DTD/svg10.dtd">
<svg version="1.0" xmlns="http://www.w3.org/2000/svg"
 width="700.000000pt" height="700.000000pt" viewBox="0 0 700.000000 700.000000"
 preserveAspectRatio="xMidYMid meet">
<metadata>
Created by potrace 1.14, written by Peter Selinger 2001-2017
</metadata>
<g transform="translate(0.000000,700.000000) scale(0.100000,-0.100000)"
fill="#000000" stroke="none">
<path d="M3170 6989 c-52 -5 -165 -21 -250 -35 -1046 -174 -1959 -817 -2480
-1749 -215 -383 -347 -783 -417 -1260 -25 -173 -25 -717 0 -890 70 -477 202
-877 416 -1258 281 -503 667 -917 1146 -1229 448 -292 919 -467 1465 -544 182
-25 598 -30 800 -9 685 70 1310 327 1849 759 151 121 385 351 504 497 457 560
728 1225 788 1937 15 179 6 583 -16 741 -81 580 -283 1098 -610 1565 -224 321
-530 627 -851 851 -507 356 -1092 570 -1704 625 -135 12 -504 11 -640 -1z
m440 -975 c29 -9 70 -26 90 -39 52 -33 1349 -1355 1379 -1405 17 -29 25 -62
29 -111 4 -63 2 -75 -27 -134 -48 -97 -129 -155 -250 -177 -78 -15 -178 2
-247 42 -34 19 -200 181 -514 500 -278 282 -478 478 -497 486 -39 17 -99 18
-141 3 -21 -7 -219 -202 -596 -585 -603 -614 -587 -595 -572 -677 6 -34 41
-74 86 -98 21 -12 311 -15 1730 -19 l1705 -5 62 -29 c70 -32 142 -102 168
-162 27 -62 23 -159 -8 -221 -21 -40 -277 -306 -1156 -1200 -1288 -1311 -1172
-1208 -1351 -1208 -174 0 -124 -41 -890 738 -454 462 -673 691 -690 724 -17
32 -26 67 -28 112 -3 59 0 73 30 131 38 74 103 129 183 157 72 26 193 23 270
-6 57 -21 83 -46 545 -512 277 -279 497 -493 513 -499 40 -14 102 -12 140 4
19 8 233 217 532 522 573 583 618 629 627 652 24 61 -7 138 -72 176 -35 21
-43 21 -1740 26 l-1705 5 -60 28 c-163 76 -233 242 -162 383 20 39 284 314
1150 1196 618 629 1137 1152 1153 1163 79 51 215 68 314 39z"/>
</g>
</svg>
