<?xml version="1.0" encoding="UTF-8"?>
<svg id="Layer_1" data-name="Layer 1" xmlns="http://www.w3.org/2000/svg" xmlns:xlink="http://www.w3.org/1999/xlink" viewBox="0 0 1920 1920">
  <defs>
    <style>
      .cls-1 {
        fill: url(#linear-gradient);
      }

      .cls-1, .cls-2, .cls-3 {
        stroke-width: 0px;
      }

      .cls-2 {
        fill: #bbefe5;
      }

      .cls-3 {
        fill: #fff;
      }
    </style>
    <linearGradient id="linear-gradient" x1="497.72" y1="1549.37" x2="1421.24" y2="371.96" gradientUnits="userSpaceOnUse">
      <stop offset="0" stop-color="#208796"/>
      <stop offset="1" stop-color="#50b7b4"/>
    </linearGradient>
  </defs>
  <rect class="cls-2" width="1920" height="1920" rx="108.77" ry="108.77"/>
  <path class="cls-1" d="m879.21,1778.17L135.02,1020.45c-34.16-34.78-34.16-86.11,0-120.89L879.21,141.83c42.47-43.24,119.11-43.24,161.58,0l744.19,757.73c34.16,34.78,34.16,86.11,0,120.89l-744.19,757.73c-42.47,43.24-119.11,43.24-161.58,0Z"/>
  <path class="cls-3" d="m897.82,1531.62l-298.1-303.53c-45.52-46.35-7.79-117.96,62.16-117.96h0c23.9,0,46.61,9.11,62.16,24.95l206.22,209.98c15.62,15.9,43.8,15.9,59.42,0l252.33-256.91c21.76-22.15,3.72-56.38-29.71-56.38H444.59c-23.9,0-46.6-9.11-62.16-24.95l-.31-.31c-26.29-26.76-26.29-66.25,0-93.02L897.82,388.38c32.67-33.27,91.64-33.27,124.32,0l298.13,303.53c45.53,46.35,7.79,117.97-62.16,117.97h-.04c-23.9,0-46.61-9.11-62.16-24.95l-206.22-209.98c-15.62-15.9-43.8-15.9-59.42,0l-252.33,256.91c-21.76,22.15-3.72,56.38,29.71,56.38h767.77c23.9,0,46.6,9.11,62.16,24.95l.31.31c26.29,26.76,26.29,66.26,0,93.02l-515.74,525.11c-32.68,33.27-91.65,33.27-124.32,0Z"/>
</svg>