<?xml version="1.0" standalone="no"?>
<!DOCTYPE svg PUBLIC "-//W3C//DTD SVG 20010904//EN"
 "http://www.w3.org/TR/2001/REC-SVG-20010904/DTD/svg10.dtd">
<svg version="1.0" xmlns="http://www.w3.org/2000/svg"
 width="700.000000pt" height="700.000000pt" viewBox="0 0 700.000000 700.000000"
 preserveAspectRatio="xMidYMid meet">
<metadata>
Created by potrace 1.14, written by Peter Selinger 2001-2017
</metadata>
<g transform="translate(0.000000,700.000000) scale(0.100000,-0.100000)"
fill="#000000" stroke="none">
<path d="M3222 6989 c-675 -60 -1291 -292 -1815 -685 -306 -229 -592 -529
-806 -844 -507 -747 -703 -1659 -550 -2560 203 -1193 1037 -2214 2173 -2659
1155 -453 2448 -263 3436 505 141 109 391 351 515 499 444 526 712 1145 801
1850 25 194 25 604 1 805 -86 710 -372 1359 -832 1890 -502 578 -1178 977
-1924 1134 -288 61 -727 90 -999 65z m338 -960 c108 -17 163 -55 327 -223 81
-83 380 -387 663 -676 386 -393 522 -537 539 -573 47 -96 24 -225 -52 -306
-119 -125 -333 -149 -477 -52 -23 15 -245 235 -491 487 -247 252 -464 467
-481 478 -44 28 -132 28 -175 1 -51 -32 -1127 -1133 -1141 -1168 -27 -61 6
-140 72 -171 31 -15 183 -16 1683 -16 1023 0 1674 -4 1716 -10 119 -17 210
-77 263 -172 25 -45 29 -64 29 -128 0 -65 -4 -82 -30 -127 -21 -36 -381 -410
-1143 -1185 -613 -624 -1129 -1144 -1147 -1156 -68 -47 -133 -64 -231 -60
-165 6 -127 -26 -887 749 -414 422 -670 690 -682 715 -29 59 -32 170 -7 227
30 68 93 130 165 163 55 26 73 29 162 29 166 -1 156 7 589 -434 607 -617 576
-588 625 -601 49 -13 102 -6 142 17 37 22 1110 1118 1132 1156 22 39 18 94
-12 135 -45 64 78 59 -1785 67 -1665 6 -1700 7 -1753 26 -74 28 -143 86 -178
150 -26 46 -30 64 -30 129 0 65 4 82 30 127 20 34 396 424 1150 1192 1202
1225 1165 1190 1286 1210 30 5 56 9 59 10 3 0 34 -4 70 -10z"/>
</g>
</svg>
